<svg version="1.1" viewBox="0 0 10240 7680" x="0px" y="0px" width="1024px" height="768px" xmlns="http://www.w3.org/2000/svg">
  <defs>
    <symbol id="symbol_5_7_0" viewBox="0 0 659.7130200097654 439.9728064827844">
      <path d="M0,0L659.7130200097654,0L659.7130200097654,439.9728064827844L0,439.9728064827844z" id="PITCH" fill="#1a8f45" stroke-width="1.5"/>
      <path d="M35.174597368893686,35.27761961225018L35.174597368893686,404.69518687053414L624.5384226408715,404.69518687053414L624.5384226408715,35.27761961225018L35.174597368893686,35.27761961225018zM623.4466587970901,403.6047609599647L36.26368532090127,403.6047609599647L36.26368532090127,36.36938346872214L623.4466587970901,36.36938346872214L623.4466587970901,403.6047609599647z" id="BORDER" fill="#ffffff" stroke-width="1.5"/>
      <path d="M619.692382638204,404.1158562947346C619.7111138806218,401.769099181681 621.6109970401437,399.86520216236755 623.9550782341452,399.83978119021947L623.9550782341452,398.74935527964993C621.0049075533385,398.77611419770074 618.6206879827271,401.16568557963564 618.6032946861963,404.11719424063705L619.692382638204,404.11719424063705z" id="CORNER KICK" fill="#ffffff" stroke-width="1.5"/>
      <path d="M35.64823021288715,399.8571744869525C35.67365118473991,399.85316064924484 35.69773421070568,399.8464709197321 35.724493128445424,399.8464709197321C38.09800913196074,399.8464709197321 40.03000299277026,401.7771268570963 40.03401683043122,404.14930494229816L41.124442728325796,404.14930494229816C41.12042889066483,401.1710373632459 38.70276067287895,398.7587209009679 35.72449312844543,398.7587209009679C35.69773421070568,398.7587209009679 35.67365118473991,398.76407268457814 35.64823021288715,398.76674857638307L35.64823021288715,399.8571744869525z" id="CORNER KICK" fill="#ffffff" stroke-width="1.5"/>
      <path d="M40.01796147978738,35.8114600273633C40.01796147978738,35.823501540486156 40.02063737156136,35.832867161803925 40.02063737156136,35.84357072902424C40.02063737156136,38.21976265193381 38.08730556486483,40.15443242700544 35.709775723688566,40.15443242700544C35.68836858949677,40.15443242700544 35.66963734707895,40.15041858929783 35.64823021288715,40.14774269749274L35.64823021288715,41.2395065539647C35.66963734707895,41.2395065539647 35.68836858949677,41.24485833757486 35.709775723688566,41.24485833757486C38.69205710578306,41.24485833757486 41.11106326945592,38.8245141998815 41.11106326945592,35.84357072902425C41.11106326945592,35.83286716180393 41.108387377681936,35.82082564868109 41.108387377681936,35.8114600273633L40.01796147978738,35.8114600273633z" id="CORNER KICK" fill="#ffffff" stroke-width="1.5"/>
      <path d="M619.6602719369163,35.828853324096315C619.6602719369163,35.81012208146077 619.6642857745773,35.7940667306303 619.6656237204643,35.775335487994745L618.5778737143438,35.775335487994745C618.5738598766827,35.7940667306303 618.5711839849088,35.81012208146077 618.5711839849088,35.828853324096315C618.5711839849088,38.804445011343425 620.9821624732596,41.21809941952407 623.9537402882582,41.22746504084184L623.9537402882582,40.13837707617496C621.5855760682908,40.127673508954665 619.6602719369163,38.19969346339572 619.6602719369163,35.828853324096315z" id="CORNER KICK" fill="#ffffff" stroke-width="1.5"/>
      <path d="M329.3099591100484,35.844908674926785L330.400385007943,35.844908674926785L330.400385007943,404.1840915357642L329.3099591100484,404.1840915357642z" id="CENTER LINE" fill="#ffffff" stroke-width="1.5"/>
      <path d="M329.8571789778262,171.54607183996166C356.5665927197518,171.54607183996166 378.29617187031096,193.27698918900276 378.29617187031096,219.98774118729477C378.29617187031096,246.69715523968407 356.5665927197518,268.4280725887252 329.85717897782615,268.4280725887252C303.14508934412646,268.4280725887252 281.41417224768037,246.69715523968407 281.41417224768037,219.98774118729477C281.41417224768037,193.27698918900276 303.1450893441265,171.54607183996166 329.8571789778262,171.54607183996166M329.8571789778262,170.87709888869205C302.7343399568215,170.87709888869205 280.7451993041867,192.86356390511818 280.7451993041867,219.98774118729466C280.7451993041867,247.1105805235687 302.7343399568215,269.0970455399947 329.8571789778262,269.0970455399947C356.9800179988309,269.0970455399947 378.9651448138046,247.1105805235687 378.9651448138046,219.98774118729477C378.96514481380467,192.86356390511818 356.9800179988309,170.87709888869205 329.8571789778262,170.87709888869205L329.8571789778262,170.87709888869205z" id="CENTER CIRCLE" fill="#ffffff" stroke-width="1.5"/>
      <path d="M329.8571789778262,218.35009540258676C330.7608872420763,218.35009540258676 331.4934867976115,219.0827031481767 331.4934867976115,219.98641142293135C331.4934867976115,220.89011969768595 330.7608872420763,221.62271108019755 329.8571789778262,221.62271108019755C328.953470713576,221.62271108019755 328.22087115804084,220.89011969768595 328.22087115804084,219.98641142293135C328.22087115804084,219.0827031481767 328.953470713576,218.35009540258676 329.8571789778262,218.35009540258676z" id="CENTER SPOT" fill="#ffffff" stroke-width="1.5"/>
      <path d="M35.69372037304473,238.86883376392737L23.20265757213215,238.86883376392737L23.20265757213215,201.10664861066198L35.69372037304473,201.10664861066198L35.69372037304473,200.01622270009256L22.11089372835059,200.01622270009256L22.11089372835059,239.9579217285943L35.69372037304473,239.9579217285943z" id="GOAL" fill="#ffffff" stroke-width="1.5"/>
      <path d="M35.69372037304473,170.87709888869205L35.69372037304473,171.96752479926147L64.3110449498141,171.96752479926147L64.3110449498141,268.0052816835228L35.69372037304473,268.0052816835228L35.69372037304473,269.09570759409223L65.40280879359567,269.09570759409223L65.40280879359567,170.87709888869205z" id="GOAL BOX" fill="#ffffff" stroke-width="1.5"/>
      <path d="M35.69372037304473,112.60152715769617L35.69372037304473,113.6919530682656L122.58795394931587,113.6919530682656L122.58795394931587,326.2821913604212L35.69372037304473,326.2821913604212L35.69372037304473,327.3712793250881L123.67837984721048,327.3712793250881L123.67837984721048,112.60152715769617z" id="PENALTY BOX" fill="#ffffff" stroke-width="1.5"/>
      <path d="M123.08968365693609,180.4541156590674L123.08968365693609,181.83219993868278C134.57996293438225,190.61180095114477 142.01626617425714,204.44214774569215 142.01626617425714,219.98774118729466C142.01626617425714,235.5333346288972 134.58130088026923,249.36501936934715 123.08968365693609,258.14328243590666L123.08968365693609,259.52136671552194C135.22083901424912,250.5785363029502 143.10535412626473,236.2156870391922 143.10535412626473,219.98907913319718C143.10535412626473,203.75979533539717 135.21950106836212,189.3956081257366 123.08968365693609,180.4541156590674z" id="PENALTY ARC" fill="#ffffff" stroke-width="1.5"/>
      <path d="M93.9960503443993,218.35009540258676C94.89975860864945,218.35009540258676 95.63235816418467,219.0827031481767 95.63235816418467,219.98641142293135C95.63235816418467,220.89011969768595 94.89975860864945,221.62271108019755 93.9960503443993,221.62271108019755C93.09234208014914,221.62271108019755 92.35974252461395,220.89011969768595 92.35974252461395,219.98641142293135C92.35974252461395,219.0827031481767 93.09234208014914,218.35009540258676 93.9960503443993,218.35009540258676z" id="PENALTY SPOT" fill="#ffffff" stroke-width="1.5"/>
      <path d="M623.9497264505973,200.01622270009256L623.9497264505973,201.10664861066198L636.5250798423901,201.10664861066198L636.5250798423901,238.86883376392737L623.9497264505973,238.86883376392737L623.9497264505973,239.9579217285943L637.6155057402847,239.9579217285943L637.6155057402847,200.01622270009256z" id="GOAL" fill="#ffffff" stroke-width="1.5"/>
      <path d="M594.3088732702827,269.09570759409223L623.9497264505973,269.09570759409223L623.9497264505973,268.0052816835228L595.3992991681772,268.0052816835228L595.3992991681772,171.96752479926147L623.9497264505973,171.96752479926147L623.9497264505973,170.87709888869205L594.3088732702827,170.87709888869205z" id="GOAL BOX" fill="#ffffff" stroke-width="1.5"/>
      <path d="M537.1250660604494,326.2821913604212L537.1250660604494,113.6919530682656L623.9497264505973,113.6919530682656L623.9497264505973,112.60152715769617L536.0333022166678,112.60152715769617L536.0333022166678,327.3712793250881L623.9497264505973,327.3712793250881L623.9497264505973,326.2821913604212z" id="PENALTY BOX" fill="#ffffff" stroke-width="1.5"/>
      <path d="M536.545735491384,258.08307487029236C525.0996084282083,249.29946002012267 517.6980917813952,235.49587214362617 517.6980917813952,219.98640324139222C517.6980917813952,204.47693433915808 525.0996084282083,190.67334646266158 536.545735491384,181.889731612492L536.545735491384,180.51030938697414C524.4600702942284,189.45581569135095 516.6076658835005,203.79324398296066 516.6076658835005,219.98640324139222C516.6076658835005,236.17956249982367 524.4600702942284,250.51699079143336 536.545735491384,259.4611591499077L536.545735491384,258.08307487029236z" id="PENALTY ARC" fill="#ffffff" stroke-width="1.5"/>
      <path d="M565.716969665366,218.35009540258676C566.6206779296162,218.35009540258676 567.3532774851515,219.0827031481767 567.3532774851515,219.98641142293135C567.3532774851515,220.89011969768595 566.6206779296162,221.62271108019755 565.716969665366,221.62271108019755C564.8132614011159,221.62271108019755 564.0806618455806,220.89011969768595 564.0806618455806,219.98641142293135C564.0806618455806,219.0827031481767 564.8132614011159,218.35009540258676 565.716969665366,218.35009540258676z" id="PENALTY SPOT" fill="#ffffff" stroke-width="1.5"/>
    </symbol>
  </defs>
  <g id="BACKROUND">
    <path d="M1042.95,140.35L1042.95,417.31499999999994L433.73166109253066,1295.6316610925303L433.73166109253066,1506.7816610925304L433.8,3751.2L253.942,3751.2L253.99,4081.6479999999997L53,4204.902L53,4680.950000000001L53,5497.9L53,6143.41L186.22,6823.642L780.458,7201.916L1690.789,7438.049999999999L8666.781661092531,7437.931661092531L9300.38166109253,7437.931661092531L10079.202,6978.146000000001L10233,6229.356L10233,6159L10233,5488.85L10233,4871.45L10233,4296.594999999999L10233,4038.91L10233,3828.65L10233,3208.4500000000003L10233,2544.35L10233,2039.1119999999999L10149.521,1643.262L10116.56,1487.048L10015.506,1292.759L9733.28,883.6879999999999L9623.71,724.8739999999999L9470.697,623.2180000000001L9102.192,378.39599999999996L8944.079,273.352L8761.305,235.52100000000002L8487.494,178.851L8301.472,140.35z" id="POCHE" fill="#f6f6f6" stroke="#d4d4d4" stroke-width="5.4"/>
    <g id="FIELD">
      <use x="1728.45" y="1928.3" width="6597.130200097654" height="4399.728064827844" xlink:href="#symbol_5_7_0" xmlns:xlink="http://www.w3.org/1999/xlink"/>
      <path d="M1728.4,1928.6L8325.3,1928.6L8325.3,6327.950000000001L1728.4,6327.950000000001z" id="FIELD STROKE" fill="none" stroke="#dddddd" stroke-width="6"/>
      <path d="M8047.95,6167.5L8375.65002368129,6167.5L8375.65002368129,6384.2L8047.95,6384.2z" id="MASK" fill="#f6f6f6" stroke="#f6f6f6" stroke-width="6"/>
      <path d="M1673.1,1900.1L2061.85,1900.1L2061.85,2075.1L1673.1,2075.1z" id="MASK" fill="#f6f6f6" stroke="#f6f6f6" stroke-width="6"/>
      <path d="M8024.25,1863L8266.15,1863L8266.15,2075.15L8024.25,2075.15z" id="MASK" fill="#f6f6f6" stroke="#f6f6f6" stroke-width="6"/>
      <path d="M1616.6,6167.45L1798.299738373307,6167.45L1798.299738373307,6328.0500425813225L1616.6,6328.0500425813225z" id="MASK" fill="#f6f6f6" stroke="#f6f6f6" stroke-width="6"/>
    </g>
    <g id="FIELD SECTIONS">
      <path d="M7661.05,1782.15L7661.05,2075.1L8024.330000000001,2075.1L8049.32,1782.15z" id="F12" fill="#ffffff" stroke="#dddddd" stroke-width="6"/>
      <path d="M7215.2,1782.15L7215.2,2075.1L7660.049999999999,2075.1L7660.049999999999,1782.15z" id="F11" fill="#ffffff" stroke="#dddddd" stroke-width="6"/>
      <path d="M6720.099999999999,1782.15L6720.099999999999,2075.1L7215.2,2075.1L7215.2,1782.15z" id="F10" fill="#ffffff" stroke="#dddddd" stroke-width="6"/>
      <path d="M6286.7,1782.15L6286.7,2075.1L6720.099999999999,2075.1L6720.099999999999,1782.15z" id="F09" fill="#ffffff" stroke="#dddddd" stroke-width="6"/>
      <path d="M5854.849999999999,1782.15L5854.849999999999,2075.1L6286.7,2075.1L6286.7,1782.15z" id="F08" fill="#ffffff" stroke="#dddddd" stroke-width="6"/>
      <path d="M5502.150000000001,1782.15L5502.150000000001,2075.1L5854.849999999999,2075.1L5854.849999999999,1782.15z" id="F07" fill="#ffffff" stroke="#dddddd" stroke-width="6"/>
      <path d="M4165.599999999999,1782.15L4165.599999999999,2075.1L4526.15,2075.1L4526.15,1782.15z" id="F06" fill="#ffffff" stroke="#dddddd" stroke-width="6"/>
      <path d="M3736.9999999999995,1782.15L3736.9999999999995,2075.1L4165.599999999999,2075.1L4165.599999999999,1782.15z" id="F05" fill="#ffffff" stroke="#dddddd" stroke-width="6"/>
      <path d="M3300.5000000000005,1782.15L3300.5000000000005,2075.1L3736.9999999999995,2075.1L3736.9999999999995,1782.15z" id="F04" fill="#ffffff" stroke="#dddddd" stroke-width="6"/>
      <path d="M2792.7,1782.15L2792.7,2075.1L3300.5000000000005,2075.1L3300.5000000000005,1782.15z" id="F03" fill="#ffffff" stroke="#dddddd" stroke-width="6"/>
      <path d="M2300.8500000000004,1782.15L2300.8500000000004,2075.1L2792.7,2075.1L2792.7,1782.15z" id="F02" fill="#ffffff" stroke="#dddddd" stroke-width="6"/>
      <path d="M1906.97,1782.15C1983.67,1926.4399999999998 2040.85,2034.43 2061.89,2075.1L2300.8500000000004,2075.1L2300.8500000000004,1782.15z" id="F01" fill="#ffffff" stroke="#dddddd" stroke-width="6"/>
      <path d="M1162.95,260.40000000000003L1162.95,360.5L1262.95,360.5L8278.96,360.40000000000003L8857.79,480.19999999999993L9466.68,884.73L9895.869999999999,1506.81L10013,2062.1099999999997L10013,6207.05L9982.99,6353.17L10081.289999999999,6371.58L10113,6217.21L10113,2051.68L9989.58,1466.54L9538.06,812.09L8897.01,386.2L8289.199999999999,260.40000000000003z" id="MASK" fill="#ffffff" stroke="#dddddd" stroke-width="6"/>
      <path d="M1426.65,2512.4L1728.75,2512.4L1728.7130553777238,3010.8130553777237L1426.8630553777236,3165.713055377724z" id="F17" fill="#ffffff" stroke="#dddddd" stroke-width="6"/>
    </g>
    <g id="SUITES">
      <path d="M1516,1048.1C1544.8,1102.0699999999997 1573.9199999999998,1156.64 1602.9399999999998,1211.0499999999995L8208.34,1211.0499999999995L8222.25,1048.1z" id="SUITE TRAY" fill="#dfdfdf" stroke="#dddddd" stroke-width="6"/>
      <path d="M984.5000000000001,2230.5L984.41,3277.7099999999996L916.3000000000001,3312.8500000000004L916.3399999999999,2230.79L984.5000000000001,2230.5zM553.8000000000001,1627L553.8000000000001,3499.1L984.54,3278.36L984.5000000000001,2242.96L984.5000000000001,2231.0099999999998L1081.1,1994.45L1081.1,1627z" id="SRO" fill="#ffffff" stroke="#dddddd" stroke-width="6"/>
      <path d="M1206.79,1686.65L984.5,2231.01L984.5,2242.96L984.54,3278.36L1224.53,3155.38L1224.5,2272.96L1224.5,2261.01L1349.44,1955.03L1206.79,1686.65z" id="SUITES" fill="#dfdfdf" stroke="#dddddd" stroke-width="6"/>
      <path d="M4052.8,6167.45L4052.8,6398.9L5962.3,6398.9L5962.3,6276.2L5962.4,6276.2L5962.4,6167.45L4052.8,6167.45z" id="SUITES" fill="#dfdfdf" stroke="#dddddd" stroke-width="6"/>
    </g>
    <g id="LOWER">
      <path d="M1602.77,1211.1000000000001C1713.0600000000002,1417.86 1822,1622.28 1906.97,1782.15L8159.41,1782.15L8208.17,1211.1000000000001z" id="LOWER TRAY" fill="#ffffff" stroke="#dddddd" stroke-width="6"/>
      <path d="M7454.55,1211.1000000000001L7454.55,1782.15L8159.41,1782.15L8208.17,1211.1000000000001z" id="C09" fill="#ffffff" stroke="#dddddd" stroke-width="6"/>
      <path d="M6759,1211.1000000000001L6759,1782.15L7454.55,1782.15L7454.55,1211.1000000000001z" id="C08" fill="#ffffff" stroke="#dddddd" stroke-width="6"/>
      <path d="M6028.3,1211.1000000000001L6028.3,1782.15L6759,1782.15L6759,1211.1000000000001z" id="C07" fill="#ffffff" stroke="#dddddd" stroke-width="6"/>
      <path d="M5382.45,1211.1000000000001L5382.45,1782.15L6028.3,1782.15L6028.3,1211.1000000000001z" id="C06" fill="#ffffff" stroke="#dddddd" stroke-width="6"/>
      <path d="M4629,1211.1000000000001L4629,1782.15L5382.45,1782.15L5382.45,1211.1000000000001z" id="C05" fill="#ffffff" stroke="#dddddd" stroke-width="6"/>
      <path d="M3977.0499999999997,1211.1000000000001L3977.0499999999997,1782.15L4629,1782.15L4629,1211.1000000000001z" id="C04" fill="#ffffff" stroke="#dddddd" stroke-width="6"/>
      <path d="M3260.7999999999997,1211.1000000000001L3260.7999999999997,1782.15L3977.0499999999997,1782.15L3977.0499999999997,1211.1000000000001z" id="C03" fill="#ffffff" stroke="#dddddd" stroke-width="6"/>
      <path d="M2561.15,1211.1000000000001L2561.15,1782.15L3260.7999999999997,1782.15L3260.7999999999997,1211.1000000000001z" id="C02" fill="#ffffff" stroke="#dddddd" stroke-width="6"/>
      <path d="M1602.77,1211.1000000000001C1713.0600000000002,1417.86 1822,1622.28 1906.97,1782.15L2561.15,1782.15L2561.15,1211.1000000000001z" id="C01" fill="#ffffff" stroke="#dddddd" stroke-width="6"/>
    </g>
    <g id="UPPER">
      <path d="M1162.95,260.40000000000003L1162.95,387.32C1240.1999999999998,531.91 1374.17,782.69 1515.8300000000002,1048.15L8222.08,1048.15L8289.33,260.43L8289.199999999999,260.40000000000003z" id="UPPER TRAY" fill="#ffffff" stroke="#dddddd" stroke-width="6"/>
      <path d="M4575.55,977.7L4575.55,1048.1500495885157L5443.15,1048.1500495885157L5443.15,977.7z" id="INACTIVE" fill="#dfdfdf" stroke="#dddddd" stroke-width="6"/>
      <path d="M7457,260.4L7457,596.9L7626.849999999999,596.9L7626.849999999999,1048.15L8222.08,1048.15L8260.444,598.73L8289.333,260.4L7457,260.4z" id="110" fill="#ffffff" stroke="#dddddd" stroke-width="6"/>
      <path d="M6750.05,260.4L6750.05,596.9L6912.200000000001,596.9L6912.200000000001,1048.15L7626.849999999999,1048.15L7626.849999999999,596.9L7457,596.9L7457,260.4L6750.05,260.4z" id="109" fill="#ffffff" stroke="#dddddd" stroke-width="6"/>
      <path d="M6048,260.4L6048,596.9L6205.4,596.9L6205.4,1048.15L6912.200000000001,1048.15L6912.200000000001,596.9L6750.05,596.9L6750.05,260.4L6048,260.4z" id="108" fill="#ffffff" stroke="#dddddd" stroke-width="6"/>
      <path d="M5327.8,260.4L5327.96981016711,632.9198101671099L5443.11981016711,632.8198101671098L5443.100000000001,1048.15L6205.35,1048.15L6205.35,596.9L6047.950000000001,596.9L6047.950000000001,260.4z" id="107" fill="#ffffff" stroke="#dddddd" stroke-width="6"/>
      <path d="M4688.65,260.4L4688.65,632.860835499871L4575.55,632.860835499871L4575.55,977.6499893132732L5443.15,977.6499893132732L5443.15,632.860835499871L5327.85,632.860835499871L5327.85,260.4z" id="106" fill="#ffffff" stroke="#dddddd" stroke-width="6"/>
      <path d="M3973.2,260.4L3973.2,596.9L3814.7,596.9L3814.7,1048.15L4575.55,1048.15L4575.519810167109,632.8698101671098L4688.71981016711,632.8198101671098L4688.65,260.4z" id="105" fill="#ffffff" stroke="#dddddd" stroke-width="6"/>
      <path d="M3264.3,260.4L3264.3,596.9L3103.85,596.9L3103.85,1048.15L3814.7000000000003,1048.15L3814.7000000000003,596.9L3973.2,596.9L3973.2,260.4L3264.3,260.4z" id="104" fill="#ffffff" stroke="#dddddd" stroke-width="6"/>
      <path d="M2549.8500000000004,260.4L2549.8500000000004,596.9L2391.75,596.9L2391.75,1048.15L3103.85,1048.15L3103.85,596.9L3264.3,596.9L3264.3,260.4L2549.8500000000004,260.4z" id="103" fill="#ffffff" stroke="#dddddd" stroke-width="6"/>
      <path d="M1872.9499999999998,260.4L1872.9499999999998,596.9L1714.5,596.9L1714.5,1048.15L2391.75,1048.15L2391.75,596.9L2549.8500000000004,596.9L2549.8500000000004,260.4L1872.9499999999998,260.4z" id="102" fill="#ffffff" stroke="#dddddd" stroke-width="6"/>
      <path d="M1162.95,260.4L1162.95,387.32L1162.95,387.32C1192.404,442.453 1230.107,513.02 1273.339,593.958L1275.475,597.958C1345.203,728.499 1429.075,885.569 1515.83,1048.15L1714.5,1048.15L1714.5,596.9L1872.9499999999998,596.9L1872.9499999999998,260.4L1162.95,260.4z" id="101" fill="#ffffff" stroke="#dddddd" stroke-width="6"/>
      <g id="DETAILS">
        <g id="ISM_GROUP_101 AISLE">
          <line x1="1714.5263066082553" x2="1568.7" y1="594.85" y2="594.85" fill="none" stroke="#f6f6f6" stroke-width="6"/>
          <line x1="1568.75" x2="1568.75" y1="596.85" y2="362.45" fill="none" stroke="#f6f6f6" stroke-width="6"/>
        </g>
        <g id="VOMS">
          <path d="M1650.75,503.15L1800.75,503.15L1800.75,683.1499441254422L1650.75,683.1499441254422z" id="VOM" fill="#dfdfdf" stroke-width="6"/>
          <path d="M2332.9,503.15L2482.8999200000426,503.15L2482.8999200000426,683.1499441254422L2332.9,683.1499441254422z" id="VOM" fill="#dfdfdf" stroke-width="6"/>
          <path d="M4264.45,483.15L4642.724798253441,483.15L4642.724798253441,663.1499441254422L4264.45,663.1499441254422z" id="VOM" fill="#dfdfdf" stroke-width="6"/>
          <path d="M3579.5,483.15L3919.649818586764,483.15L3919.649818586764,663.1499441254422L3579.5,663.1499441254422z" id="VOM" fill="#dfdfdf" stroke-width="6"/>
          <path d="M3054.85,483.15L3204.849920000043,483.15L3204.849920000043,663.1499441254422L3054.85,663.1499441254422z" id="VOM" fill="#dfdfdf" stroke-width="6"/>
          <path d="M5378.9,483.15L5709.999823413428,483.15L5709.999823413428,663.1499441254422L5378.9,663.1499441254422z" id="VOM" fill="#dfdfdf" stroke-width="6"/>
          <path d="M6098.9,483.15L6456.899809066769,483.15L6456.899809066769,663.1499441254422L6098.9,663.1499441254422z" id="VOM" fill="#dfdfdf" stroke-width="6"/>
          <path d="M6808.9,483.15L6958.899920000043,483.15L6958.899920000043,663.1499441254422L6808.9,663.1499441254422z" id="VOM" fill="#dfdfdf" stroke-width="6"/>
          <path d="M7518.9,503.15L7668.899920000043,503.15L7668.899920000043,683.1499441254422L7518.9,683.1499441254422z" id="VOM" fill="#dfdfdf" stroke-width="6"/>
          <path d="M8118.6,493.1545837173579L8223.545416282643,493.15L8213.57599686638,673.1305647091596L8118.6,673.0545837173579z" id="VOM" fill="#dfdfdf" stroke-width="6"/>
        </g>
      </g>
    </g>
    <g id="BOWL">
      <path d="M8485.33,1825.7L8294.4,2009.5500000000002L8294.3,2009.48L8345.5,2053.2L8414.25,2170.85L8414.82,2173.19L8650.199999999999,2073.8399999999997L8485.33,1825.7z" id="INACTIVE" fill="#dfdfdf" stroke="#dddddd" stroke-width="6"/>
      <path d="M8503,3494.7000000000003L8503,3628.7L8503,3791.3L8325.55,3791.3L8325.55,4052L8503,4052L8503,4671.5L8503,4805.299999999999L8704.7,4805.299999999999L8704.7,4671.5L8704.7,3628.7L8704.7,3494.7000000000003L8503,3494.7000000000003z" id="INACTIVE" fill="#dfdfdf" stroke="#dddddd" stroke-width="6"/>
      <path d="M8440.39,6165.4400000000005L8319.4,6304L8483.119999999999,6470.610000000001L8637.539999999999,6247.570000000001L8440.39,6165.4400000000005z" id="INACTIVE" fill="#dfdfdf" stroke="#dddddd" stroke-width="6"/>
      <path d="M8289.287149991538,260.4L8145.1,1949.7428500084616L8241.79361840338,1968.9936184033795L8892.347149991538,396.65L8896.807149991539,386.27L8896.807149991539,386.14z" id="111" fill="#ffffff" stroke="#dddddd" stroke-width="6"/>
      <path d="M8896.756381596619,386.15L8896.756381596619,386.28L8892.29638159662,396.66L8241.85,1968.9936184033795L8294.306381596618,2009.5300000000002L9537.93638159662,812.05L8896.916381596619,386.1799999999999z" id="112" fill="#ffffff" stroke="#dddddd" stroke-width="6"/>
      <path d="M8637.52,6247.55L8483.1,6470.59L9318.892850008462,7318.242850008462L9732.342850008463,6705.292850008462z" id="121" fill="#ffffff" stroke="#dddddd" stroke-width="6"/>
      <path d="M8295.342850008461,6275.75L8073.642850008461,6361.049999999999L8073.5,7317.967149991539L8630.44,7317.967149991539L9045.1,7042.237149991538z" id="122" fill="#ffffff" stroke="#dddddd" stroke-width="6"/>
      <path d="M5962.3,6274.2L5962.3,6398.9L5413.8,6398.9L5413.8,7318.099999999999L6126.15,7318.099999999999L6126.15,6274.2z" id="126" fill="#ffffff" stroke="#dddddd" stroke-width="6"/>
      <path d="M7559.35,6274.25L7559.35,7318.099999999999L8073.5,7318.099999999999L8073.5,6274.25z" id="123" fill="#ffffff" stroke="#dddddd" stroke-width="6"/>
      <path d="M7356.95,6167.454037267081L7357.1040372670805,6274.30403726708L7559.345962732919,6274.2L8073.495962732919,6274.25L8102.295962732918,6274.150000000001L8102.295962732918,6167.45z" id="F13" fill="#ffffff" stroke="#dddddd" stroke-width="6"/>
      <path d="M6841.249999999999,6274.25L6841.249999999999,7318.099999999999L7559.35,7318.099999999999L7559.35,6274.25z" id="124" fill="#ffffff" stroke="#dddddd" stroke-width="6"/>
      <path d="M6597.15,6167.45L6597.15,6274.449999765902L6810.325499778742,6274.449999765902L7357.14991266878,6274.449999765902L7357.14991266878,6167.45z" id="F14" fill="#ffffff" stroke="#dddddd" stroke-width="6"/>
      <path d="M5962.4,6167.45L5962.4,6274.2L6126.15,6274.2L6126.15,7318.099999999999L6841.25,7318.099999999999L6841.25,6274.2L6597.150000000001,6274.2L6597.150000000001,6167.45L5962.4,6167.45z" id="125" fill="#ffffff" stroke="#dddddd" stroke-width="6"/>
      <path d="M4595.6,6398.9L4595.6,7318.099999999999L5413.8,7318.099999999999L5413.8,6398.9z" id="127" fill="#ffffff" stroke="#dddddd" stroke-width="6"/>
      <path d="M3881.4,6277.349999999999L3881.4,7318.099999999999L4595.6,7318.099999999999L4595.6,6398.9L4052.7999999999997,6398.9L4052.7999999999997,6277.349999999999z" id="128" fill="#ffffff" stroke="#dddddd" stroke-width="6"/>
      <path d="M2464.75,6277.349999999999L2464.75,7318.099999999999L3173.0499999999997,7318.099999999999L3173.0499999999997,6277.349999999999z" id="130" fill="#ffffff" stroke="#dddddd" stroke-width="6"/>
      <path d="M1797.65,6277.349999999999L1797.65,7318.099999999999L2464.75,7318.099999999999L2464.75,6277.349999999999z" id="131" fill="#ffffff" stroke="#dddddd" stroke-width="6"/>
      <polyline points="1596.988489771294,6295.9 902.15,6966.442081829649 1269.6515102287058,7231.503592058354 1702.3315102287056,7317.673592058354 1797.5815102287058,7317.673592058354 1797.5384897712945,6366.838489771294 1596.988489771294,6295.9 " id="132" fill="#ffffff" stroke="#f6f6f6" stroke-width="6"/>
      <path d="M3448.4500000000003,6167.45L3448.4500000000003,6277.35L3173.05,6277.35L3173.05,7318.099999999999L3881.3999999999996,7318.099999999999L3881.3999999999996,6277.35L4052.7999999999997,6277.35L4052.7999999999997,6167.45L3448.4500000000003,6167.45z" id="129" fill="#ffffff" stroke="#dddddd" stroke-width="6"/>
      <path d="M2553.65,6167.45L2553.65,6277.449900000091L3238.649923446587,6277.449900000091L3238.649923446587,6167.45z" id="F15" fill="#ffffff" stroke="#dddddd" stroke-width="6"/>
      <path d="M1761.25,6167.45L1761.25,6277.349999999999L2553.65,6277.349999999999L2553.65,6167.45z" id="F16" fill="#ffffff" stroke="#dddddd" stroke-width="6"/>
      <path d="M1251.3884897712942,6222.45L432.65,6560.953592058356L787.961510228706,7076.953592058356L1414.1115102287058,6470.603592058355z" id="133" fill="#ffffff" stroke="#dddddd" stroke-width="6"/>
      <path d="M173,5935.2L173,6131.82L275.68848977129414,6626.4384897712935L1481.046521806437,6126.009406389775L1509.238489771294,6185.638489771294L1601.288489771294,6126.088489771294L1601.3000000000002,5935.2z" id="134" fill="#ffffff" stroke="#dddddd" stroke-width="6"/>
      <path d="M173,5295.95L173,5935.2L1601.3000000000002,5935.2L1601.3000000000002,6048.45L1728.7500000000002,6048.45L1728.7500000000002,5933.2L1728.7400000000002,5295.95z" id="135" fill="#ffffff" stroke="#dddddd" stroke-width="6"/>
      <path d="M173,4479L173,5295.95L1728.7400000000002,5295.95L1728.7299999999998,4479z" id="136" fill="#ffffff" stroke="#dddddd" stroke-width="6"/>
      <path d="M373.96,3871.25L374,4148.87L173,4272.13L173,4479L1728.7299999999998,4479L1728.7299999999998,3871.25z" id="137" fill="#ffffff" stroke="#dddddd" stroke-width="6"/>
      <path d="M8455.25,5957.05L8455.25,6109.25L8440.41,6165.45L9990.949999999999,6811.43L10113,6217.21L10113,5957.05z" id="120" fill="#ffffff" stroke="#dddddd" stroke-width="6"/>
      <path d="M8704.65,3626.7L8704.65,4669.5L10112.95,4669.5L10112.95,4381.99L10112.95,3943.15L10112.95,3626.7z" id="117" fill="#ffffff" stroke="#dddddd" stroke-width="6"/>
      <path d="M8503,5286.900000000001L8503,5396.7L8325.55,5396.7L8325.55,5959.049999999999L8325.55,6101.1L8313.262999999999,6115.320000000001L8268.23,6167.45L8229.3,6212.37L8319.381,6304.022L8440.415,6165.433000000001L8455.25,6109.25L8455.25,5957.05L10113,5957.05L10113,5286.900000000001L8503,5286.900000000001z" id="119" fill="#ffffff" stroke="#dddddd" stroke-width="6"/>
      <path d="M8325.55,4052L8325.55,5396.7L8503,5396.7L8503,5286.900000000001L10113,5286.900000000001L10113,4669.5L8704.7,4669.5L8704.7,4805.299999999999L8503,4805.299999999999L8503,4052z" id="118" fill="#ffffff" stroke="#dddddd" stroke-width="6"/>
      <path d="M8325.55,2902.2000000000003L8325.55,3791.3L8503,3791.3L8503,3494.7000000000003L8704.7,3494.7000000000003L8704.7,3626.7000000000003L10113,3626.7000000000003L10113,3006.5L8503,3006.5L8503,2902.2000000000003L8325.55,2902.2000000000003z" id="116" fill="#ffffff" stroke="#dddddd" stroke-width="6"/>
      <path d="M9997.71,1505.0700000000002L8414.84,2173.26L8435,2255.5499999999997L8434.98,2342.4L10113,2342.4L10113,2051.68L9997.71,1505.0700000000002z" id="114" fill="#ffffff" stroke="#dddddd" stroke-width="6"/>
      <path d="M8241.75,1968.95L8201.85,2053.3823529411766L8238.741647058823,2075.0266470588235L8325.497647058823,2210.8086470588237L8325.497647058823,2344.3376470588237L8325.497647058823,2902.137647058824L8502.947647058823,2902.137647058824L8502.947647058823,3006.4376470588236L10112.947647058823,3006.4376470588236L10112.947647058823,2342.3376470588237L8434.928647058823,2342.3376470588237L8434.947647058823,2255.487647058824L8414.197647058823,2170.7876470588235L8345.447647058823,2053.1376470588234L8294.297647058822,2009.4876470588235z" id="115" fill="#ffffff" stroke="#dddddd" stroke-width="6"/>
      <path d="M9538.03,812.0699999999999L8485.33,1825.7L8650.21,2073.8399999999997L9997.71,1505.0700000000002L9989.58,1466.54L9538.06,812.09z" id="113" fill="#ffffff" stroke="#dddddd" stroke-width="6"/>
      <path d="M1728.7199999999998,3060.86L1426.69,3215.69L1426.69,3339.05L643.85,3740.1000000000004L643.89,3871.21L1728.7199999999998,3871.23L1728.7199999999998,3060.86z" id="138" fill="#ffffff" stroke="#dddddd" stroke-width="6"/>
      <path d="M1761.25,6167.45L1761.25,6277.3499999999985L2553.65,6277.3499999999985L2553.65,6167.45z" id="F16" fill="#ffffff" stroke="#dddddd" stroke-width="6"/>
      <path d="M1728.7099999999998,2061.6L1528.07,2061.675860329016L1426.65,2157.8383098972845L1426.66,2512.400005174589L1728.7099999999998,2512.400005174589L1728.7099999999998,2074.2591924044614L1728.7099999999998,2061.6z" id="F18" fill="#ffffff" stroke="#dddddd" stroke-width="6"/>
      <g id="DETAILS">
        <g id="MASKS">
          <path d="M1625.257,7203.835L1545.3290000000002,7283.764L1702.696,7315.1L8362.25,7315.1L8362.25,7221.1L1711.9640000000002,7221.1L1625.257,7203.835z" id="MASK" fill="#ffffff" stroke-width="6"/>
          <path d="M10016,4529.05L10016,6207.36L9986.539999999999,6350.780000000001L10078.95,6368.09L10110,6216.91L10110,4529.05z" id="MASK" fill="#ffffff" stroke-width="6"/>
          <path d="M1165.95,263.4L1165.95,357.5L1262.95,357.5L8279.27,357.4L8858.97,477.37999999999994L9468.82,882.55L9898.68,1505.6L10016,2061.7999999999997L10016,3842.75L10110,3842.75L10110,2051.99L9986.77,1467.75L9535.92,814.27L8895.83,389.02L8288.890000000001,263.4z" id="MASK" fill="#ffffff" stroke-width="6"/>
          <path d="M176,4331.3L176,6103.9L270,6103.9L270,4331.3L176,4331.3z" id="MASK" fill="#ffffff" stroke-width="6"/>
        </g>
        <g id="VOMS">
          <path d="M8544.9,2278.95L8710.4,2278.95L8710.4,2405.3L8544.9,2405.3z" id="VOM" fill="#dfdfdf" stroke-width="6"/>
          <path d="M8544.9,2941.8L8710.4,2941.8L8710.4,3068.1500000000005L8544.9,3068.1500000000005z" id="VOM" fill="#dfdfdf" stroke-width="6"/>
          <path d="M8544.9,5235.3L8710.4,5235.3L8710.4,5361.650000000001L8544.9,5361.650000000001z" id="VOM" fill="#dfdfdf" stroke-width="6"/>
          <path d="M8544.9,5895.3L8710.4,5895.3L8710.4,6021.650000000001L8544.9,6021.650000000001z" id="VOM" fill="#dfdfdf" stroke-width="6"/>
          <path d="M8140.6,6470.95L8306.1,6470.95L8306.1,6597.3L8140.6,6597.3z" id="VOM" transform="rotate(90, 8140.6, 6470.95)" fill="#dfdfdf" stroke-width="6"/>
          <path d="M7610.75,6470.95L7776.25,6470.95L7776.25,6597.3L7610.75,6597.3z" id="VOM" transform="rotate(90, 7610.75, 6470.95)" fill="#dfdfdf" stroke-width="6"/>
          <path d="M6894.35,6470.95L7059.85,6470.95L7059.85,6597.3L6894.35,6597.3z" id="VOM" transform="rotate(90, 6894.35, 6470.95)" fill="#dfdfdf" stroke-width="6"/>
          <path d="M6183.3,6470.95L6348.8,6470.95L6348.8,6597.3L6183.3,6597.3z" id="VOM" transform="rotate(90, 6183.3, 6470.95)" fill="#dfdfdf" stroke-width="6"/>
          <path d="M5478.95,6470.95L5644.45,6470.95L5644.45,6597.3L5478.95,6597.3z" id="VOM" transform="rotate(90, 5478.95, 6470.95)" fill="#dfdfdf" stroke-width="6"/>
          <path d="M4660,6470.95L4825.5,6470.95L4825.5,6597.3L4660,6597.3z" id="VOM" transform="rotate(90, 4660, 6470.95)" fill="#dfdfdf" stroke-width="6"/>
          <path d="M3952.55,6470.95L4118.05,6470.95L4118.05,6597.3L3952.55,6597.3z" id="VOM" transform="rotate(90, 3952.55, 6470.95)" fill="#dfdfdf" stroke-width="6"/>
          <path d="M3243.55,6470.95L3409.05,6470.95L3409.05,6597.3L3243.55,6597.3z" id="VOM" transform="rotate(90, 3243.55, 6470.95)" fill="#dfdfdf" stroke-width="6"/>
          <path d="M2530.55,6470.95L2696.05,6470.95L2696.05,6597.3L2530.55,6597.3z" id="VOM" transform="rotate(90, 2530.55, 6470.95)" fill="#dfdfdf" stroke-width="6"/>
          <path d="M1861.55,6470.95L2027.05,6470.95L2027.05,6597.3L1861.55,6597.3z" id="VOM" transform="rotate(90, 1861.55, 6470.95)" fill="#dfdfdf" stroke-width="6"/>
          <path d="M1288.65,6008.35L1454.15,6008.35L1454.15,6134.700000000001L1288.65,6134.700000000001z" id="VOM" transform="rotate(180, 1288.65, 6008.35)" fill="#dfdfdf" stroke-width="6"/>
          <path d="M1238.65,5337.5L1404.15,5337.5L1404.15,5422.150033003535L1238.65,5422.150033003535z" id="VOM" transform="rotate(180, 1238.65, 5337.5)" fill="#dfdfdf" stroke-width="6"/>
          <path d="M1238.65,4518.65L1404.15,4518.65L1404.15,4603.300033003535L1238.65,4603.300033003535z" id="VOM" transform="rotate(180, 1238.65, 4518.65)" fill="#dfdfdf" stroke-width="6"/>
          <path d="M8656.9,593.15L8731.89996000002,593.15L8731.89996000002,773.1499441254422L8656.9,773.1499441254422z" id="VOM" transform="rotate(16.851065785131524, 8656.9, 593.15)" fill="#dfdfdf" stroke-width="6"/>
        </g>
        <line x1="8484.6" x2="8484.6" y1="2608.65" y2="2868.940361903779" id="WALL" fill="none" stroke="#dfdfdf" stroke-width="12"/>
        <line x1="8484.6" x2="8484.6" y1="2946.95" y2="3263.462243049143" id="WALL" fill="none" stroke="#dfdfdf" stroke-width="12"/>
        <line x1="8483" x2="8483" y1="5029" y2="5344.992792639327" id="WALL" fill="none" stroke="#dfdfdf" stroke-width="12"/>
        <line x1="8483.05" x2="8483.05" y1="5448.5" y2="5698.152002795891" id="WALL" fill="none" stroke="#dfdfdf" stroke-width="12"/>
      </g>
    </g>
    <g id="DETAILS">
      <path d="M4526.150000000001,1782.15L4526.150000000001,2075.1L5502.1500000000015,2075.1L5502.1500000000015,1782.15z" id="BENCHES" fill="#dfdfdf" stroke="#dddddd" stroke-width="6"/>
      <text font-family="averta,arial,'arial bold'" text-align="left" font-size="149.46729379380037" x="4648.8755754162585" y="1980.4290034280116" width="736.5" height="172.85" fill="#727272" stroke-width="10">
        <tspan text-anchor="start" x="4648.8755754162585">BENCHES</tspan>
      </text>
      <text font-family="averta,arial,'arial bold'" text-align="left" font-size="149.5" x="4744.324999999998" y="1186.4" width="545.6" height="172.9" fill="#727272" stroke-width="10">
        <tspan text-anchor="start" x="4744.324999999998">SUITES</tspan>
      </text>
      <text font-family="averta,arial,'arial bold'" text-align="left" font-size="149.5" transform="rotate(-90, 1018.2689188061992, 2884.8595362508167)" x="1021.4" y="3023.15" width="545.6" height="172.9" fill="#727272" stroke-width="10">
        <tspan text-anchor="start" x="1021.4">SUITES</tspan>
      </text>
      <text font-family="averta,arial,'arial bold'" text-align="left" font-size="149.5" x="4737.75" y="6334.97515" width="545.6" height="172.9" fill="#727272" stroke-width="10">
        <tspan text-anchor="start" x="4737.75">SUITES</tspan>
      </text>
    </g>
    <path d="M916.3425726947125,2230.7925726947124L984.5,2230.5L984.4074273052876,3277.707427305284L916.3,3312.8499999999976z" id="HRBO" fill="#ffffff" stroke="#dddddd" stroke-width="6"/>
  </g>
</svg>